<svg fill="white" id="Layer_1" data-name="Layer 1" xmlns="http://www.w3.org/2000/svg" viewBox="0 0 500 500"><title>snowflake</title><path d="M327.29,353.05c-1.4,2.06-3.33,2.69-5.8,2.66-7.71-.12-15.43,0-23.43,0v-8.23c0-6.7,0-13.39,0-20.09,0-3.11-1.55-5-4.06-5s-4.27,1.85-4.28,5.08c0,9.3,0,18.6,0,28.09H273V328.72c0-4.46-1.33-6.48-4.24-6.43s-4.1,2-4.11,6.3v26.94H248V352.8c0-8.43,0-16.87,0-25.31,0-3.29-1.56-5.2-4.16-5.2s-4.17,1.89-4.18,5.18c0,8.35,0,16.7,0,25v3c-.84.06-1.51.16-2.17.16q-10.83,0-21.66,0c-4,0-5.65-1.62-5.33-5.54q1.83-22.62,3.76-45.22.71-8.44,1.42-16.89c.09-1,.22-2.06.35-3.19H321.73c.46,5.37.93,10.72,1.37,16.07q1.89,22.88,3.78,45.75a5.68,5.68,0,0,0,.41,1.2ZM294,305.55a4.16,4.16,0,1,0-4.26-4A4.22,4.22,0,0,0,294,305.55Z"/><path d="M271.45,88.47c4.8,1.78,8.53,4.64,9.6,10a23,23,0,0,1,.3,4.4q0,70.44,0,140.86v3.42c3.36,0,6.54,0,9.73,0,16.06.11,28.46,11.57,29.86,27.59,0,.43,0,.87,0,1.47H216.73A27.47,27.47,0,0,1,220.05,263c5.58-10.12,14.21-15.43,25.76-15.87,3.38-.13,6.76,0,10.5,0V244c0-46.6.1-93.21-.09-139.81,0-7.75,2.58-13.06,10-15.68Z"/><path d="M191.82,255.47c-.87,5.77-1.69,11.25-2.54,16.73q-5.59,36.3-11.22,72.62c-.3,2-.6,3.95-.94,5.92-.68,4-1.76,4.92-5.9,4.92H99c-3.76,0-5-1-5.56-4.7q-3.62-23-7.18-46.09c-.06-.42-.17-.83-.31-1.45a19.16,19.16,0,0,1-15.46-1.26c-13-6.93-14-25.18-1.68-33.26,6.9-4.52,14.09-8.58,21.18-12.8a4.52,4.52,0,0,1,2.21-.6c4.69-.06,9.38,0,14.66,0-1,.7-1.53,1.14-2.13,1.5-10.2,6.13-20.45,12.17-30.61,18.38-7.29,4.46-7.59,14.41-.59,18.86A13,13,0,0,0,78.57,296c4.88.68,6.17-.68,5.5-5.41-.38-2.75-.73-5.52-1.32-8.23-.38-1.73.08-2.64,1.61-3.54,9-5.29,18-10.57,26.78-16.14,2.39-1.52,4.08-4.11,6.23-6.06a4.44,4.44,0,0,1,2.75-1.13c19.39-.07,38.78-.05,58.17-.05Z"/><path d="M91.3,222.07c-3.23-10.18-1.71-16.92,4.78-21.74a16.6,16.6,0,0,1,19.49-.29c6.78,4.8,8.36,11.31,5.2,22h75.07c5.1,0,6.2,1.13,6.2,6.32,0,4.52,0,9,0,13.56,0,3.61-1.5,5.16-5,5.16H73.45c-3.44,0-5-1.52-5-4.91q-.06-7.56,0-15.12c0-3.53,1.53-5,5.14-5C79.42,222.05,85.24,222.07,91.3,222.07Z"/><path d="M172.8,213.71A16.69,16.69,0,1,1,189.51,197,16.73,16.73,0,0,1,172.8,213.71Z"/><path d="M147.76,184.44A12.52,12.52,0,1,1,135.32,172,12.55,12.55,0,0,1,147.76,184.44Z"/><path d="M110.17,184.58a4.15,4.15,0,1,1-4.06-4.24A4.21,4.21,0,0,1,110.17,184.58Z"/><path d="M143.58,209.56a4.16,4.16,0,1,1-4.14,4.17A4.21,4.21,0,0,1,143.58,209.56Z"/></svg>