<svg fill="white" id="Layer_1" data-name="Layer 1" xmlns="http://www.w3.org/2000/svg" viewBox="0 0 500 500"><title>snowflake</title><path d="M402.63,357.4v1.05c-.38.77-.8,1.53-1.14,2.32q-4,9.18-8,18.38c-.46,1.07-.76,2.08-2.37,1.64-6.78-1.85-13.61-3.53-20.38-5.42-3.1-.86-4.33-3.21-3.76-6.45.62-3.51,1.37-7,1.87-10.52a7.76,7.76,0,0,0-5.06-8.73,51.94,51.94,0,0,0-5.65-2c-1.34-.38-1.54-1.1-1.29-2.31.57-2.72,1.15-5.44,1.54-8.19.61-4.32-1.14-8.07-5.33-8.93-7.44-1.51-11.42-6.06-13.62-12.83-.18-.57-.57-1.07-.8-1.63-1.17-2.89-3.34-3.85-6.39-3.87a66.93,66.93,0,0,1-12.19-.84c-31.39-6.13-51-34-46.31-65.67,3.53-24.08,24.29-44.39,48.43-47.24,4.45-.53,9-.53,13.44-.78,3-17.78-12.63-38.25-32.08-42-23.61-4.57-41.74,11.32-46,25.92.82.25,1.64.5,2.46.73,6.2,1.7,12.42,3.31,18.57,5.16a9.56,9.56,0,0,1,4.62,2.69c2.74,3.44,5.07,7.21,6.64,9.5-4,4.62-7.73,8.62-11,13s-6.21,9.11-9.38,13.82A39.31,39.31,0,0,1,257.05,206c.78.07,1.21.09,1.62.16,3.39.55,5.7-.7,6.26-3.43s-.89-5-4.14-5.87q-11.61-3-23.25-5.79c-3.2-.78-5.63.59-6.37,3.36s.93,5.08,4.09,5.9c2.94.76,5.88,1.54,8.85,2.16a3.21,3.21,0,0,1,2.81,2.79,48.14,48.14,0,0,0,17.44,27.09c1.39,1.1,1.61,2,1.22,3.7q-8.85,38.37,19.41,65.89a3.32,3.32,0,0,1,1.16,3.78Q275.52,344.26,265,382.83c-1.91,7-6.41,9.51-13.4,7.6L144.06,361.08c-7.27-2-9.84-6.46-7.86-13.72q6.95-25.37,13.88-50.75,13.88-50.75,27.73-101.5c.86-3.18,2.46-5.7,5.51-7.18,11.48-5.57,22.91-11.27,34.49-16.62,2.11-1,4.85-.79,7.29-.72,1.69,0,3.36.83,5,1.29l17.71,4.87c9.18-24.69,33-36.43,54.79-33.13a48.81,48.81,0,0,1,28.86,14.92c10.38,10.93,14.77,24.07,13.83,39,.78.28,1.35.51,1.92.69a57.07,57.07,0,0,1,27,91c-2.3,2.8-2.7,5.19-1.07,8.49,9.46,19.15,18.74,38.39,28.1,57.59A19.62,19.62,0,0,0,402.63,357.4ZM337.57,220.5c-1.72,2.11-3.17,4.18-4.93,5.94a4.92,4.92,0,0,0-1.56,4.32,11.65,11.65,0,0,1-7.28,11.56A11.91,11.91,0,1,1,323,220c.84.25,2.27.35,2.7-.13,1.81-2,3.35-4.32,5-6.52a21.58,21.58,0,1,0,1.85,35C340.92,241.59,343.27,229.19,337.57,220.5Zm21.7,79.22c-3.07-.08-5.28,3.58-3.54,7.23,3.39,7.14,6.89,14.22,10.35,21.33q8.6,17.69,17.21,35.38c1.42,2.91,3.54,4.13,5.92,3.5,3.05-.81,4.42-4,2.93-7.09-2.87-6.05-5.84-12-8.77-18.05q-9.4-19.33-18.79-38.66A5.54,5.54,0,0,0,359.27,299.72Zm-202.53,45c1.77-6.48,3.54-12.73,5.19-19,.84-3.19-.52-5.75-3.21-6.42s-5.12.76-6,4c-2.11,7.61-4.21,15.23-6.24,22.87-1,3.68.28,5.76,4,6.83s7.7,2.12,11.55,3.17c5.19,1.42,10.37,2.9,15.58,4.24a4.66,4.66,0,0,0,5.94-3.27c.73-2.6-.59-4.94-3.35-5.89-.74-.25-1.51-.41-2.26-.61Z"/></svg>