<svg id="Layer_1" data-name="Layer 1" xmlns="http://www.w3.org/2000/svg" viewBox="0 0 500 500"><title>snowflake</title><path d="M264,133.47c5.54,2.1,7.62,6.14,7.43,12-.28,8.5-.08,17-.08,26,1.1-.75,1.85-1.24,2.57-1.78,6.83-5.11,13.61-10.27,20.48-15.3A9,9,0,0,1,305,154c3.55,2.13,5,5.46,4.46,9.56-.38,3.07-2.24,5.16-4.63,7Q289,182.25,273.33,194.14a4.93,4.93,0,0,0-1.85,3.3c-.12,17-.08,33.92-.08,50.88,0,.42.05.85.09,1.62.83-.42,1.51-.7,2.13-1.07Q295.09,236,316.5,223.06a4.56,4.56,0,0,0,1.91-3q2.19-19.56,4.09-39.16c.61-6.14,4.16-9.95,9.58-10,6,0,10.23,4.9,9.57,11.09-.95,8.81-1.85,17.63-2.76,26.45a4.38,4.38,0,0,0,.15,1c.93-.52,1.76-1,2.56-1.42,7.3-4.38,14.57-8.82,21.92-13.13a9.39,9.39,0,0,1,12.4,2.29,9.52,9.52,0,0,1-.65,12.41,14.41,14.41,0,0,1-2.91,2.17c-7,4.24-14,8.43-21,12.65-.8.48-1.57,1-2.63,1.69,8.8,3.59,17.25,7,25.66,10.49,4.86,2,7.34,6.42,6.31,11-1.36,6.07-7.36,9.16-13.39,6.73-12.4-5-24.76-10.09-37.18-15a4.53,4.53,0,0,0-3.51.11c-14.87,8.82-29.68,17.75-44.49,26.67-.43.25-.82.56-1.45,1,.81.55,1.41,1,2,1.39q21.67,13,43.32,26.09a4.21,4.21,0,0,0,4.29.36q18.65-7.72,37.39-15.22a9.49,9.49,0,0,1,9.9,16,15.5,15.5,0,0,1-3.84,2.14c-8.19,3.37-16.4,6.68-25,10.2,1,.68,1.77,1.19,2.53,1.65,7.36,4.44,14.77,8.82,22.09,13.33a9.19,9.19,0,0,1,4.34,10.1c-.95,4-3.52,6.81-7.6,7.24a12.92,12.92,0,0,1-7.15-1.5c-7.28-4.05-14.35-8.5-21.5-12.8-.73-.43-1.49-.82-2.65-1.46.58,5.77,1.12,11.16,1.67,16.54.4,3.89.89,7.77,1.21,11.67a9.54,9.54,0,0,1-7.95,10.33c-5.33.76-10.09-2.39-10.85-7.75-1.07-7.57-1.68-15.21-2.48-22.81-.65-6.23-1.25-12.46-2-18.67a3.64,3.64,0,0,0-1.39-2.46q-22.17-13.45-44.44-26.74a10.07,10.07,0,0,0-1-.42c-.07.84-.18,1.55-.18,2.27,0,16.52,0,33.05,0,49.57a4.5,4.5,0,0,0,2,4.09c10.55,7.81,21,15.71,31.54,23.58,4,3,5.45,6.8,4.28,10.89a9.5,9.5,0,0,1-14.92,5c-6.9-5-13.65-10.21-20.47-15.31-.67-.5-1.39-.93-2.44-1.63v17c0,3.65,0,7.31,0,11-.05,5.78-4,10-9.46,10s-9.47-4.12-9.53-9.92c-.08-8.61,0-17.22,0-25.83,0-.58-.06-1.16-.12-2.08-.8.5-1.38.8-1.89,1.19-7,5.2-13.89,10.45-20.9,15.61a9.47,9.47,0,0,1-11.21.19c-3.23-2.25-5-6.29-3.65-10.06a13.81,13.81,0,0,1,4.31-5.92c10.45-8.09,21.11-15.9,31.62-23.92a4.89,4.89,0,0,0,1.77-3.34c.11-16.7.08-33.4.07-50.1,0-.66-.08-1.33-.14-2.29-.92.48-1.61.79-2.24,1.17-14,8.42-28,16.88-42,25.2a5.4,5.4,0,0,0-2.89,4.72Q203.15,335,201,354.69c-.62,5.65-5.13,9.37-10.3,8.83A9.4,9.4,0,0,1,182.13,353c.62-7.79,1.55-15.56,2.34-23.35.15-1.53.25-3.08.41-5.07-1.18.66-2,1.1-2.8,1.57-7.3,4.38-14.57,8.81-21.91,13.12a8.93,8.93,0,0,1-10.52-.62,9.08,9.08,0,0,1-3.54-9.71,9.61,9.61,0,0,1,4.92-6.41q10.65-6.33,21.25-12.72c.81-.48,1.59-1,2.79-1.77-2.93-1.21-5.5-2.3-8.09-3.36-5.95-2.43-11.92-4.81-17.85-7.27a9.33,9.33,0,0,1-6.21-9.57c.19-3.88,2.79-7.55,6.69-8.34a13.1,13.1,0,0,1,7,.53c12.38,4.81,24.64,9.92,37,14.84a4.28,4.28,0,0,0,3.28,0c15.1-8.95,30.13-18,45.18-27.05.28-.17.53-.4,1-.76-.74-.51-1.32-1-1.95-1.35q-21.79-13.11-43.56-26.21a4,4,0,0,0-4.06-.31c-12.19,5-24.4,10.06-36.7,14.83a13.7,13.7,0,0,1-7.29.57c-3.91-.79-6.46-4.48-6.63-8.38a9.29,9.29,0,0,1,6-9.43c7.7-3.19,15.44-6.28,23.16-9.42.88-.36,1.74-.75,2.95-1.28-2.1-1.28-3.93-2.42-5.77-3.53-6-3.63-12.07-7.24-18.1-10.88-5.23-3.16-6.86-8.83-3.95-13.6s8.53-5.86,13.68-2.8c7,4.17,14,8.41,21,12.61.81.49,1.64.93,3,1.69-.35-3.67-.64-6.89-1-10.1-.61-6.23-1.39-12.44-1.82-18.68A9.45,9.45,0,0,1,200.94,179c1.15,9.67,2.07,19.36,3.08,29,.41,4,.71,8,1.24,11.93a4.11,4.11,0,0,0,1.53,2.71q22.16,13.47,44.43,26.77a7.9,7.9,0,0,0,1.15.42v-2.64c0-16.44,0-32.88,0-49.32a4.29,4.29,0,0,0-1.92-3.9q-16-11.88-31.94-23.92c-4.45-3.36-5.62-8.55-3-12.88a9.5,9.5,0,0,1,14-2.68c6.87,5,13.64,10.2,20.46,15.31.61.45,1.25.86,2.21,1.52.06-1.16.15-2,.15-2.81,0-7.83.18-15.66-.06-23.48-.17-5.8,2.06-9.69,7.56-11.64Z"/></svg>