<svg id="Layer_1" data-name="Layer 1" xmlns="http://www.w3.org/2000/svg" viewBox="0 0 500 500"><title>snowflake</title><path d="M119,144.53c1.12-3.14,3.24-4.85,6.68-4.83,17.71.13,35.38.85,52.82,4.32a113.67,113.67,0,0,1,31.94,11c17.6,9.44,26.22,24.44,27.14,44,.29,6.24-.47,12.55-1,18.8a5.51,5.51,0,0,1-4.65,5.36,5.94,5.94,0,0,1-6.49-3c-5.79-9.27-12.12-18.21-20.39-25.39-7.56-6.56-15.73-12.43-23.73-18.46-2.18-1.65-5.4-1-7.21.95a5.67,5.67,0,0,0-.32,7.47,17.68,17.68,0,0,0,3.79,3.37c30.05,20,48.38,48.48,58.71,82.43,3.51,11.51,5.65,23.43,8.41,35.17.17.73.32,1.48.63,2.88,1.11-3.58,2-6.58,3-9.55,7.69-23.61,19.75-44.55,37.82-61.8a146.77,146.77,0,0,1,37.18-25.33,10.77,10.77,0,0,0,4.55-4.39c1.07-2.06.19-4.41-1.74-5.91a6.18,6.18,0,0,0-7.19-.63c-6.88,3.88-13.88,7.59-20.49,11.9a123,123,0,0,0-25.44,22.71c-1.84,2.13-4,3.49-6.95,2.51a5.27,5.27,0,0,1-4-4.76c-1.09-16,1.37-31.13,12.5-43.6,6.23-7,14.2-11.56,22.76-15.14,14.6-6.1,30-8.9,45.63-10.05,9.92-.72,19.88-1,29.83-1.3,5.72-.19,7.83,2,7.78,7.81-.15,19.26-1.11,38.45-5.57,57.28-2.73,11.49-6.8,22.4-13.51,32.26-8.24,12.1-19.91,18.54-34.06,20.68-13.28,2-26.36.94-38.75-4.55-4.53-2-8.67-4.91-13.37-7.63-2.1,3.75-4.59,7.86-6.75,12.15a167.45,167.45,0,0,0-16.63,57.48c-1.14,10.39-1.5,20.86-2.13,31.3-.29,4.8-2.78,7.44-6.81,6.95a5.44,5.44,0,0,1-4.87-4.51,38.67,38.67,0,0,1-.39-4.82c-.55-12-.67-24-1.71-35.94-2.36-27.06-7.52-53.52-18.88-78.45-.32-.69-.64-1.39-1-2.08-.07-.14-.22-.25,0,0-6.33,2-12.32,4.58-18.58,5.86-15,3.06-29.63,1.94-43.43-5.27-9.76-5.11-16-13.48-21-23-6.46-12.56-9.74-26.1-11.5-40-1.09-8.6-1.49-17.28-2.23-25.93-.07-.83-.27-1.66-.41-2.49Z"/></svg>