<svg fill="white" id="Layer_1" data-name="Layer 1" xmlns="http://www.w3.org/2000/svg" viewBox="0 0 500 500"><title>snowflake</title><path d="M392.49,332.2c-2,5.38-6,7.28-11.53,7.12-7-.2-14.1,0-21.14-.08-1.77,0-2.52.53-3.13,2.24-5.34,14.95-18.72,24.44-34.09,24.33s-28.48-9.45-33.79-24.34a2.78,2.78,0,0,0-3.13-2.24q-24.21.11-48.42,0c-2.08,0-2.8.77-3.44,2.58a35.52,35.52,0,0,1-32.64,24,34.65,34.65,0,0,1-33.66-21.06c-2-4.75-4.29-5.83-8.85-5.51-5.35.37-10.75.17-16.13.05s-9.18-3.47-9.49-8.23c-.36-5.58,3.36-9.56,9.35-9.76,4.35-.14,8.71,0,13.07,0H164c3.22-5.32,5.51-10.62,9.1-14.78C191,285.61,224.66,292.1,233.75,318c.92,2.63,2.06,3.27,4.65,3.25q23.23-.18,46.47,0c2.17,0,3.17-.51,3.91-2.7a35.78,35.78,0,0,1,68,.24c.65,2,1.56,2.51,3.49,2.45,4.63-.12,9.26,0,14.28,0v-2.9c0-13.63,0-27.27-.06-40.9a7.9,7.9,0,0,0-1.45-4.26c-3.22-4.41-6.72-8.63-10-13a4.54,4.54,0,0,0-4.15-2q-32.55.09-65.11,0c-7.93,0-11.14-3.2-11.14-11.12q0-28.51,0-57v-3.68h-3.75q-67.34,0-134.68,0a19.05,19.05,0,0,1-5-.5c-4.09-1.09-6.56-4.95-6.24-9.36a8.67,8.67,0,0,1,7.65-7.93,31,31,0,0,1,3.61-.16H289c8.52,0,11.61,3.07,11.61,11.51v6.47h3.14c11,0,22.08.14,33.11-.06,5.3-.09,8.69,2,11,6.75,7.21,14.62,14.66,29.11,21.87,43.73a78.55,78.55,0,0,0,9.95,15.67c3.13,3.79,6.13,7.69,9,11.66a70,70,0,0,1,3.76,6.39ZM351.1,240a6.76,6.76,0,0,0-.3-1.05c-5.56-11.09-11.1-22.2-16.77-33.23a3.66,3.66,0,0,0-2.77-1.46c-9.55-.11-19.11-.07-28.66-.06a16.94,16.94,0,0,0-1.85.22V240ZM322.87,347.84a17.89,17.89,0,1,0-18.07-17.7A18,18,0,0,0,322.87,347.84Zm-105-17.55a17.9,17.9,0,1,0-18.43,17.53A17.84,17.84,0,0,0,217.88,330.29Z"/><path d="M154.52,258.36q-18.08,0-36.17,0a18.1,18.1,0,0,1-4.42-.38,8.89,8.89,0,0,1-.4-17,13.82,13.82,0,0,1,4.1-.58q37.14,0,74.3,0a13.73,13.73,0,0,1,3.56.44A8.86,8.86,0,0,1,194,258.24c-1.1.11-2.22.11-3.33.12Z"/><path d="M169.27,205.16c12.7,0,25.41,0,38.12,0,5.2,0,8.91,3.39,9.25,8.09A8.83,8.83,0,0,1,207.9,223c-4.35.14-8.71,0-13.07,0h-62.6c-5.18,0-8.79-2.62-9.77-7a8.71,8.71,0,0,1,8.41-10.9c8.25-.16,16.51-.06,24.76-.07Z"/><path d="M151.81,293.75c-6.78,0-13.55.1-20.32,0-6.33-.11-10.44-5.38-9-11.24,1-4.06,4.35-6.6,9.12-6.66,7.51-.09,15,0,22.54,0,5.84,0,11.69-.06,17.53,0s9.71,3.73,9.75,8.86-4.06,9-9.87,9.07C165,293.79,158.39,293.75,151.81,293.75Z"/></svg>