<svg width="47" height="47" viewBox="0 0 47 47" fill="none" xmlns="http://www.w3.org/2000/svg">
<path opacity="0.4" d="M23.4997 0.582926C36.1382 0.582927 46.4163 10.8633 46.4163 23.4996C46.4163 36.1358 36.1382 46.4163 23.4997 46.4163C10.8634 46.4163 0.583009 36.1358 0.58301 23.4996C0.583011 10.8633 10.8634 0.582925 23.4997 0.582926Z" fill="#13287B"/>
<path d="M20.1944 13.8271C20.6321 13.8271 21.0721 13.9944 21.4067 14.329L29.3977 22.281C29.7208 22.6042 29.9019 23.0419 29.9019 23.5002C29.9019 23.9562 29.7208 24.394 29.3977 24.7171L21.4067 32.6737C20.7352 33.3429 19.649 33.3429 18.9775 32.6692C18.3083 31.9954 18.3106 30.9069 18.9821 30.2377L25.7494 23.5002L18.9821 16.7627C18.3106 16.0935 18.3083 15.0073 18.9775 14.3335C19.3121 13.9944 19.7544 13.8271 20.1944 13.8271Z" fill="#13287B"/>
</svg>
