<svg width="47" height="47" viewBox="0 0 47 47" fill="none" xmlns="http://www.w3.org/2000/svg">
<path opacity="0.4" d="M23.5003 46.4171C10.8618 46.4171 0.583657 36.1367 0.583657 23.5004C0.583657 10.8642 10.8618 0.58374 23.5003 0.58374C36.1366 0.58374 46.417 10.8642 46.417 23.5004C46.417 36.1367 36.1366 46.4171 23.5003 46.4171" fill="#13287B"/>
<path d="M26.8056 33.1729C26.3679 33.1729 25.9279 33.0056 25.5933 32.671L17.6023 24.719C17.2792 24.3958 17.0981 23.9581 17.0981 23.4998C17.0981 23.0438 17.2792 22.606 17.6023 22.2829L25.5933 14.3263C26.2648 13.6571 27.351 13.6571 28.0225 14.3308C28.6917 15.0046 28.6894 16.0931 28.0179 16.7623L21.2506 23.4998L28.0179 30.2373C28.6894 30.9065 28.6917 31.9927 28.0225 32.6665C27.6879 33.0056 27.2456 33.1729 26.8056 33.1729" fill="#13287B"/>
</svg>
