<svg width="66" height="66" viewBox="0 0 66 66" fill="none" xmlns="http://www.w3.org/2000/svg">
<g clip-path="url(#clip0_288_1703)">
<path d="M47.1944 30.8587V7.09253H20.1021V20.2117H-0.337418V65.0489H20.1021V65.0803H64.3054V30.8578H47.1944V30.8587ZM13.1367 63.1484V52.3667H8.52992V63.1484H1.56438V22.1126H20.1021V63.1484H13.1367ZM62.4039 63.1794H38.3211V44.0087H30.0823V63.1794H22.0027V20.2117V8.99446H45.2924V32.7605H62.4039V63.1794ZM24.4665 13.5882H28.4281V22.3985H24.4665V13.5882ZM32.0573 13.5882H36.0174V22.3985H32.0573V13.5882ZM39.359 13.5882H43.3208V22.3985H39.359V13.5882ZM24.4665 27.1181H28.4281V36.8793H24.4665V27.1181ZM32.0573 27.1181H36.0174V36.8793H32.0573V27.1181ZM39.359 27.1181H43.3208V36.8793H39.359V27.1181ZM50.3705 46.0851H46.4102V37.037H50.3705V46.0851ZM50.3705 60.5655H46.4102V51.2802H50.3705V60.5655ZM58.6874 46.0851H54.7273V37.037H58.6874V46.0851ZM58.6874 60.5655H54.7273V51.2802H58.6874V60.5655ZM4.69383 25.2733H8.6541V34.3208H4.69383V25.2733ZM4.69383 39.5154H8.6541V48.8005H4.69383V39.5154ZM13.0112 25.2733H16.9713V34.3208H13.0112V25.2733ZM13.0112 39.5154H16.9713V48.8005H13.0112V39.5154Z" fill="white"/>
</g>
<defs>
<clipPath id="clip0_288_1703">
<rect width="64.6429" height="64.6429" fill="white" transform="translate(0.777115 0.405396)"/>
</clipPath>
</defs>
</svg>
