<svg width="68" height="55" viewBox="0 0 68 55" fill="none" xmlns="http://www.w3.org/2000/svg">
<path d="M66.2279 51.3729H62.9826V2.48971C62.9826 1.61079 62.2701 0.89856 61.3917 0.89856H36.7649C35.8862 0.89856 35.1738 1.61101 35.1738 2.48971V51.3729H33.5327V19.686C33.5327 18.8071 32.8203 18.0949 31.9416 18.0949H7.31506C6.43615 18.0949 5.72392 18.8073 5.72392 19.686V39.8352C5.72392 39.8372 5.72392 39.8389 5.72392 39.8409V51.3729H2.53829C1.6596 51.3729 0.947144 52.0852 0.947144 52.9641C0.947144 53.843 1.6596 54.5552 2.53829 54.5552H66.2281C67.1066 54.5552 67.8191 53.843 67.8191 52.9641C67.8191 52.0852 67.1066 51.3729 66.2279 51.3729ZM30.3506 51.3729H23.6849L26.1758 48.8825C26.7972 48.261 26.7972 47.2538 26.1758 46.6323C25.5546 46.0111 24.5471 46.0111 23.9257 46.6323L19.1849 51.3732H10.9683L15.4741 46.8674C16.0956 46.2459 16.0956 45.2387 15.4741 44.6173C14.8526 43.9958 13.8454 43.9958 13.224 44.6173L8.90599 48.9353V40.4972L13.4342 35.9691C14.0556 35.3476 14.0556 34.3404 13.4342 33.7189C12.8127 33.0975 11.8055 33.0975 11.1841 33.7189L8.90599 35.997V21.2772H30.3506V51.3729ZM59.8005 51.3729H38.3559V4.08085H59.8005V51.3729Z" fill="white"/>
<path d="M13.0471 27.2745H16.7623C17.641 27.2745 18.3534 26.5622 18.3534 25.6833C18.3534 24.8044 17.641 24.0922 16.7625 24.0922H13.0471C12.1684 24.0922 11.4559 24.8044 11.4559 25.6833C11.4559 26.5622 12.1684 27.2745 13.0471 27.2745Z" fill="white"/>
<path d="M52.0505 11.5643H55.7659C56.6446 11.5643 57.3571 10.852 57.3571 9.9731C57.3571 9.09419 56.6446 8.38196 55.7659 8.38196H52.0505C51.1718 8.38196 50.4596 9.09419 50.4596 9.9731C50.4596 10.852 51.1718 11.5643 52.0505 11.5643Z" fill="white"/>
<path d="M52.0505 19.4195H55.7659C56.6446 19.4195 57.3571 18.7073 57.3571 17.8286C57.3571 16.9497 56.6446 16.2374 55.7659 16.2374H52.0505C51.1718 16.2374 50.4596 16.9497 50.4596 17.8286C50.4594 18.7073 51.1718 19.4195 52.0505 19.4195Z" fill="white"/>
<path d="M22.7067 27.2745H26.4221C27.3008 27.2745 28.0133 26.5622 28.0133 25.6833C28.0133 24.8044 27.3008 24.0922 26.4221 24.0922H22.7067C21.828 24.0922 21.1158 24.8044 21.1158 25.6833C21.1158 26.5622 21.828 27.2745 22.7067 27.2745Z" fill="white"/>
<path d="M22.7067 35.1297H26.4221C27.3008 35.1297 28.0133 34.4175 28.0133 33.5386C28.0133 32.6599 27.3008 31.9476 26.4221 31.9476H22.7067C21.828 31.9476 21.1158 32.6599 21.1158 33.5386C21.1156 34.4175 21.828 35.1297 22.7067 35.1297Z" fill="white"/>
<path d="M22.7067 42.9846H26.4221C27.3008 42.9846 28.0133 42.2723 28.0133 41.3936C28.0133 40.5147 27.3008 39.8025 26.4221 39.8025H22.7067C21.828 39.8025 21.1158 40.5147 21.1158 41.3936C21.1156 42.2723 21.828 42.9846 22.7067 42.9846Z" fill="white"/>
<path d="M52.0505 27.2745H55.7659C56.6446 27.2745 57.3571 26.5622 57.3571 25.6833C57.3571 24.8044 56.6446 24.0922 55.7659 24.0922H52.0505C51.1718 24.0922 50.4596 24.8044 50.4596 25.6833C50.4596 26.5622 51.1718 27.2745 52.0505 27.2745Z" fill="white"/>
<path d="M42.3909 35.1297H46.1061C46.9848 35.1297 47.6972 34.4175 47.6972 33.5386C47.6972 32.6599 46.9848 31.9476 46.1061 31.9476H42.3909C41.5122 31.9476 40.7997 32.6599 40.7997 33.5386C40.7997 34.4175 41.5122 35.1297 42.3909 35.1297Z" fill="white"/>
<path d="M42.3909 27.2745H46.1061C46.9848 27.2745 47.6972 26.5622 47.6972 25.6833C47.6972 24.8044 46.9848 24.0922 46.1061 24.0922H42.3909C41.5122 24.0922 40.7997 24.8044 40.7997 25.6833C40.7997 26.5622 41.5122 27.2745 42.3909 27.2745Z" fill="white"/>
<path d="M42.3909 42.9846H46.1061C46.9848 42.9846 47.6972 42.2723 47.6972 41.3936C47.6972 40.5147 46.9848 39.8025 46.1061 39.8025H42.3909C41.5122 39.8025 40.7997 40.5147 40.7997 41.3936C40.7997 42.2723 41.5122 42.9846 42.3909 42.9846Z" fill="white"/>
<path d="M52.0505 42.9846H55.7659C56.6446 42.9846 57.3571 42.2723 57.3571 41.3936C57.3571 40.5147 56.6446 39.8025 55.7659 39.8025H52.0505C51.1718 39.8025 50.4596 40.5147 50.4596 41.3936C50.4594 42.2723 51.1718 42.9846 52.0505 42.9846Z" fill="white"/>
<path d="M52.0505 35.1297H55.7659C56.6446 35.1297 57.3571 34.4175 57.3571 33.5386C57.3571 32.6599 56.6446 31.9476 55.7659 31.9476H52.0505C51.1718 31.9476 50.4596 32.6599 50.4596 33.5386C50.4594 34.4175 51.1718 35.1297 52.0505 35.1297Z" fill="white"/>
<path d="M42.3909 11.5643H46.1061C46.9848 11.5643 47.6972 10.852 47.6972 9.9731C47.6972 9.09419 46.9848 8.38196 46.1061 8.38196H42.3909C41.5122 8.38196 40.7997 9.09419 40.7997 9.9731C40.7997 10.852 41.5122 11.5643 42.3909 11.5643Z" fill="white"/>
<path d="M42.3909 19.4195H46.1061C46.9848 19.4195 47.6972 18.7073 47.6972 17.8286C47.6972 16.9497 46.9848 16.2374 46.1061 16.2374H42.3909C41.5122 16.2374 40.7997 16.9497 40.7997 17.8286C40.7997 18.7073 41.5122 19.4195 42.3909 19.4195Z" fill="white"/>
</svg>
