<svg width="71" height="65" viewBox="0 0 71 65" fill="none" xmlns="http://www.w3.org/2000/svg">
<path d="M26.0236 12.0107C29.1122 12.0107 31.6161 9.50688 31.6161 6.41821C31.6161 3.32954 29.1122 0.825684 26.0236 0.825684C22.9349 0.825684 20.431 3.32954 20.431 6.41821C20.431 9.50688 22.9349 12.0107 26.0236 12.0107Z" fill="white"/>
<path d="M68.3049 43.9386C67.6594 41.7741 65.4439 38.0756 64.1587 36.774C60.778 33.1533 56.5265 30.8148 50.8719 30.1318L48.8143 22.2793C48.573 21.3582 47.6308 20.8066 46.709 21.0483C45.7877 21.2899 45.2365 22.2323 45.478 23.1536L45.5255 23.335L45.167 23.4718L41.8363 20.3183C42.2576 19.6884 42.3947 18.8782 42.1351 18.1042C41.6902 16.7776 40.2542 16.0631 38.9269 16.5078L29.335 19.7252L29.5238 18.8942C29.9861 16.8596 28.7113 14.8354 26.6767 14.3731L20.5772 12.9874C18.4522 12.523 16.16 13.1991 15.5854 15.7275C11.2866 34.6469 20.5374 -6.08284 11.2906 34.6298L11.2994 34.6317L9.83033 45.3561L1.34692 59.9637C0.528203 61.3733 1.00739 63.1798 2.41693 63.9985C3.82624 64.8172 5.63274 64.3383 6.45146 62.9285L15.2283 47.8166C15.4217 47.4838 15.5479 47.1162 15.6003 46.7348L17.0784 35.9442L19.16 36.4171L23.815 47.0016L24.3042 61.5451C24.3579 63.1407 25.6678 64.3976 27.2522 64.3976C27.2856 64.3976 27.3196 64.3969 27.353 64.3959C28.9821 64.3411 30.2584 62.976 30.2036 61.3469L29.6952 46.235C29.6825 45.8596 29.5984 45.4899 29.4469 45.1462L25.5648 36.3191L26.2554 33.2793L25.2264 33.1654C22.9877 32.9176 21.4661 31.1974 21.1615 29.9822L18.6421 19.9334L23.5211 29.3907C23.9102 30.1448 24.6509 30.6541 25.4944 30.7474L35.5564 31.8612C36.9379 32.0143 38.1987 31.0212 38.3537 29.6214C38.5077 28.2301 37.5049 26.9781 36.1141 26.8241L27.4023 25.8597L22.9838 17.2954C23.3022 17.65 28.3345 23.2571 28.5923 23.5443L32.571 23.9848L38.5675 21.9734L41.591 24.8362L39.2417 25.7328C40.3346 26.7666 40.9486 28.282 40.7707 29.8891C40.4696 32.6088 38.0176 34.5814 35.2882 34.2789L33.729 34.1064L34.9507 38.7686C35.0971 39.327 35.6404 39.6855 36.2116 39.6005L49.2768 37.6525L49.3243 37.8338C49.5658 38.7554 50.5087 39.3063 51.4296 39.0648C52.3509 38.8232 52.9021 37.8808 52.6605 36.9595L52.1512 35.0159C55.5898 35.3121 58.5944 36.3527 61.8202 39.0794C63.5112 40.415 65.6014 43.7297 66.0778 44.8662C67.5582 48.0982 68.0045 49.9027 68.6914 53.5449L68.6981 53.5812C68.7611 53.9175 69.0682 54.1598 69.4175 54.1338C69.7925 54.106 70.0739 53.7795 70.0461 53.4045C69.7568 49.5027 69.4956 47.57 68.3049 43.9386Z" fill="white"/>
<path d="M64.1177 51.0382C62.7015 49.1059 60.743 48.0533 58.3932 47.8221C57.0506 47.7015 56.0072 48.9158 56.2981 50.2037C56.5427 51.286 57.9575 51.689 58.6502 51.6707C59.6487 51.6445 60.6626 51.1936 62.5555 52.5144C63.8548 53.5154 64.3539 54.5192 64.6754 55.1056L64.6912 55.1346C64.7901 55.3145 64.9964 55.4192 65.2095 55.3798C65.4751 55.3305 65.6507 55.075 65.6014 54.8092C65.3832 53.6342 65.1164 52.4727 64.1177 51.0382Z" fill="white"/>
<path d="M67.378 32.8117C67.545 32.931 67.7769 32.9365 67.9519 32.8089C68.1701 32.6493 68.2176 32.3432 68.058 32.125L68.0388 32.099C67.3194 31.1152 66.8748 30.359 66.5908 29.0803C66.4048 28.0055 66.4982 27.0045 66.9792 25.978C67.1008 25.7251 67.3319 25.3184 67.4825 25.1857C67.4841 25.1866 67.4818 25.1996 67.4816 25.2014C68.3075 24.1856 67.8947 22.5959 66.6098 22.1362C65.8573 21.867 64.4596 21.9219 63.9068 23.8859C63.8134 24.2097 63.7157 24.6558 63.6571 25.1908C63.4882 26.821 63.7747 28.3756 64.5914 29.8689C65.3872 31.2428 66.2219 31.9837 67.378 32.8117Z" fill="white"/>
</svg>
