<svg width="58" height="60" viewBox="0 0 58 60" fill="none" xmlns="http://www.w3.org/2000/svg">
<path d="M56.294 0.0922852H1.99058C1.34081 0.0922852 0.813904 0.619187 0.813904 1.26896V48.9351C0.813904 54.5745 5.40188 59.1624 11.0411 59.1624C14.9634 59.1624 18.3766 56.9424 20.0917 53.6933C21.8068 56.9425 25.2199 59.1625 29.1422 59.1625C33.0645 59.1625 36.4776 56.9425 38.1928 53.6934C39.908 56.9425 43.321 59.1625 47.2433 59.1625C52.8827 59.1625 57.4705 54.5745 57.4705 48.9353V1.26896C57.4706 0.619187 56.9437 0.0922852 56.294 0.0922852ZM18.915 48.9353C18.915 53.2769 15.3828 56.8091 11.0411 56.8091C6.69946 56.8091 3.16725 53.2769 3.16725 48.9353V39.633C5.04469 41.8965 7.87729 43.3408 11.0411 43.3408C14.205 43.3408 17.0376 41.8967 18.915 39.633V48.9353ZM18.915 33.0464V33.1133C18.915 37.455 15.3828 40.9872 11.0411 40.9872C6.69946 40.9872 3.16725 37.455 3.16725 33.1133V33.0464V23.6772C5.04469 25.9408 7.87729 27.385 11.0411 27.385C14.205 27.385 17.0376 25.9409 18.915 23.6772V33.0464ZM18.915 17.1577C18.915 21.4993 15.3828 25.0316 11.0411 25.0316C6.69946 25.0316 3.16725 21.4993 3.16725 17.1577V2.44563H18.915V17.1577ZM37.0161 48.9353C37.0161 53.2769 33.4839 56.8091 29.1422 56.8091C24.8006 56.8091 21.2683 53.2769 21.2683 48.9353V39.633C23.1458 41.8965 25.9784 43.3408 29.1422 43.3408C32.306 43.3408 35.1386 41.8967 37.0161 39.633V48.9353ZM37.0161 33.0465V33.1134C37.0161 37.4551 33.4839 40.9873 29.1422 40.9873C24.8006 40.9873 21.2683 37.4551 21.2683 33.1134V33.0465V23.6773C23.1458 25.9408 25.9784 27.3851 29.1422 27.3851C32.306 27.3851 35.1386 25.941 37.0161 23.6773V33.0465ZM37.0161 17.1577C37.0161 21.4993 33.4839 25.0316 29.1422 25.0316C24.8006 25.0316 21.2683 21.4993 21.2683 17.1577V2.44563H37.0161V17.1577ZM55.1172 48.9353C55.1172 53.2769 51.585 56.8091 47.2433 56.8091C42.9017 56.8091 39.3694 53.2769 39.3694 48.9353V39.633C41.2469 41.8965 44.0795 43.3408 47.2433 43.3408C50.4071 43.3408 53.2397 41.8967 55.1172 39.633V48.9353ZM55.1172 33.0465V33.1134C55.1172 37.4551 51.585 40.9873 47.2433 40.9873C42.9017 40.9873 39.3694 37.4551 39.3694 33.1134V33.0465V23.6773C41.2469 25.9408 44.0795 27.3851 47.2433 27.3851C50.4071 27.3851 53.2397 25.941 55.1172 23.6773V33.0465ZM55.1172 17.1577C55.1172 21.4993 51.585 25.0316 47.2433 25.0316C42.9017 25.0316 39.3694 21.4993 39.3694 17.1577V2.44563H55.1172V17.1577Z" fill="white"/>
</svg>
