<svg width="59" height="63" viewBox="0 0 59 63" fill="none" xmlns="http://www.w3.org/2000/svg">
<path d="M57.2788 47.4027H50.3462L43.9143 42.704C43.2883 42.2493 42.4118 42.3811 41.9571 43.0071C41.5024 43.6332 41.6342 44.5096 42.2603 44.9644L45.5816 47.4027H43.3673C42.8929 47.4027 42.5238 47.8376 42.6095 48.3055L44.6524 60.1806C44.7183 60.5497 45.0346 60.8198 45.4102 60.8198H50.3198H55.2952C55.6709 60.8198 55.9938 60.5496 56.0531 60.174L58.0301 48.2988C58.1157 47.831 57.7533 47.4027 57.2788 47.4027ZM50.2737 51.5543C49.6806 51.6465 49.1271 51.238 49.0347 50.6449C49.0018 50.4143 49.0413 50.1902 49.1402 49.9925C49.2918 49.6894 49.5884 49.4587 49.9508 49.406C50.3528 49.3468 50.7416 49.5115 50.9723 49.8146C51.0842 49.9596 51.1633 50.1309 51.1897 50.322C51.2754 50.9086 50.8734 51.4621 50.2737 51.5543Z" fill="white"/>
<path d="M21.7329 14.9469C23.3211 14.9469 25.0674 14.0638 25.0674 14.0638C24.2437 13.5828 23.822 12.6272 23.6176 11.6651C24.481 13.0951 25.9768 14.0375 27.6705 14.0375C29.3641 14.0375 30.86 13.0951 31.7233 11.6651C31.519 12.6338 31.0973 13.5828 30.2735 14.0638C30.2735 14.0638 32.0199 14.9469 33.6081 14.9469C34.6362 14.9469 35.6049 14.5779 35.9871 13.3455C36.0464 13.161 35.9673 12.9633 35.796 12.8776C35.2227 12.5679 33.964 11.6783 33.964 9.84625C33.964 7.47385 34.5571 0.290771 27.6705 0.290771C20.784 0.290771 21.3771 7.47385 21.3771 9.84625C21.3771 11.6783 20.1184 12.5679 19.5451 12.8776C19.3737 12.9699 19.2947 13.1676 19.354 13.3455C19.7361 14.5713 20.7048 14.9469 21.7329 14.9469Z" fill="white"/>
<path d="M43.4601 36.1402C44.4683 35.389 44.6792 33.9589 43.9279 32.9507L33.0083 18.2682C30.6821 15.1709 26.0493 15.3093 23.1563 17.4642C23.1497 17.4708 14.1083 24.1992 14.1083 24.1992L8.64516 21.1744V26.387L13.1857 28.9044C13.5283 29.0955 13.9106 29.1877 14.2928 29.1877C14.7738 29.1877 15.2549 29.0362 15.6569 28.7396L20.8103 24.9042V30.565L15.3538 45.7879C15.1627 46.2953 15.5449 46.8423 16.0853 46.8423H20.8103V58.6318C20.8103 60.3254 22.181 61.6961 23.8746 61.6961C25.5682 61.6961 26.939 60.3254 26.939 58.6318V46.8291H28.4151V58.6186C28.4151 60.3121 29.7858 61.6829 31.4794 61.6829C33.173 61.6829 34.5437 60.3121 34.5437 58.6186V46.8291H39.2688C39.8157 46.8291 40.1914 46.2887 40.0003 45.7747L34.5437 30.5519V27.9488L40.2837 35.6657C40.7318 36.2654 41.4172 36.5817 42.1157 36.5817C42.577 36.5883 43.0515 36.4434 43.4601 36.1402Z" fill="white"/>
<path d="M7.39281 45.9594V25.6887V23.9621V4.12622C7.39281 3.40133 6.79971 2.80823 6.07481 2.80823C5.34991 2.80823 4.75681 3.40133 4.75681 4.12622V45.8079C5.08631 45.742 5.42899 45.709 5.76508 45.709C6.31857 45.709 6.8722 45.7947 7.39281 45.9594Z" fill="white"/>
<path d="M15.6831 61.0899C13.5084 60.0025 11.7357 57.8871 11.7357 55.0469C11.7357 52.2065 10.0684 50.9743 9.40943 50.5986C8.61204 50.2889 7.68285 50.0714 6.68117 49.9858C6.38462 49.9594 6.07489 49.9462 5.76516 49.9462C5.63336 49.9462 5.49497 49.9462 5.36317 49.9528C3.92656 50.0055 2.60197 50.3284 1.57393 50.8358C0.0186919 51.8704 0.157082 54.0913 0.157082 54.0913C0.157082 61.1359 5.44884 62.7044 10.1607 62.7044C12.2365 62.7044 14.2004 62.4012 15.5447 62.1244C16.0653 62.0256 16.1576 61.3271 15.6831 61.0899Z" fill="white"/>
<path d="M4.50653 48.6284C4.77672 48.6021 5.0535 48.5822 5.33028 48.5756C5.47526 48.5691 5.62024 48.569 5.76522 48.569C6.1079 48.569 6.44399 48.5822 6.77349 48.6086C7.05027 48.6284 7.32705 48.6613 7.59724 48.7008C7.82789 48.7338 8.05195 48.7733 8.27601 48.8195C8.44735 48.859 8.61869 48.8986 8.79002 48.9381C8.69776 48.7404 8.59891 48.5559 8.48689 48.3911C8.33532 48.1671 8.17057 47.9694 7.99923 47.8112C7.86743 47.6925 7.72904 47.5937 7.58406 47.5212C7.52475 47.4883 7.45885 47.4619 7.39954 47.4356C6.88552 47.2115 6.33196 47.0929 5.77181 47.0929C5.42913 47.0929 5.09304 47.139 4.76354 47.2247C4.55266 47.2774 4.34178 47.3499 4.13749 47.4422C4.07818 47.4685 4.01887 47.4949 3.95956 47.5212C3.81458 47.5937 3.6696 47.6992 3.53121 47.8244C3.22807 48.1012 2.95788 48.49 2.75359 48.9381C3.09627 48.8524 3.45213 48.7733 3.82117 48.714C4.04523 48.6811 4.26936 48.6481 4.50653 48.6284Z" fill="white"/>
</svg>
